<?xml version="1.0" encoding="UTF-8" standalone="no"?>
<svg
   xmlns:dc="http://purl.org/dc/elements/1.1/"
   xmlns:cc="http://creativecommons.org/ns#"
   xmlns:rdf="http://www.w3.org/1999/02/22-rdf-syntax-ns#"
   xmlns:svg="http://www.w3.org/2000/svg"
   xmlns="http://www.w3.org/2000/svg"
   viewBox="0 0 726.37335 726.37335"
   height="726.37335"
   width="726.37335"
   xml:space="preserve"
   id="svg2"
   version="1.1"><metadata
     id="metadata8"><rdf:RDF><cc:Work
         rdf:about=""><dc:format>image/svg+xml</dc:format><dc:type
           rdf:resource="http://purl.org/dc/dcmitype/StillImage" /></cc:Work></rdf:RDF></metadata><defs
     id="defs6"><linearGradient
       id="linearGradient22"
       spreadMethod="pad"
       gradientTransform="matrix(-3727.85,3377.18,3377.18,3727.85,4548.65,1070.82)"
       gradientUnits="userSpaceOnUse"
       y2="0"
       x2="1"
       y1="0"
       x1="0"><stop
         id="stop14"
         offset="0"
         style="stop-opacity:1;stop-color:#fab93a" /><stop
         id="stop16"
         offset="0.327273"
         style="stop-opacity:1;stop-color:#ed1a3c" /><stop
         id="stop18"
         offset="0.648485"
         style="stop-opacity:1;stop-color:#aa2498" /><stop
         id="stop20"
         offset="1"
         style="stop-opacity:1;stop-color:#524aa8" /></linearGradient></defs><g
     transform="matrix(1.3333333,0,0,-1.3333333,0,726.37333)"
     id="g10"><g
       transform="scale(0.1)"
       id="g12"><path
         id="path24"
         style="fill:url(#linearGradient22);fill-opacity:1;fill-rule:evenodd;stroke:none"
         d="M 908.508,5447.83 H 4539.36 c 499.38,0 908.47,-409.04 908.47,-908.48 V 908.469 C 5447.83,409.059 5038.74,0 4539.36,0 H 908.508 C 409.039,0 0,409.059 0,908.469 V 4539.35 c 0,499.44 409.039,908.48 908.508,908.48 v 0" /><path
         id="path26"
         style="fill:#ffffff;fill-opacity:1;fill-rule:evenodd;stroke:none"
         d="m 1719.37,2723.88 c 0,554.59 449.99,1004.58 1004.55,1004.58 554.56,0 1004.55,-449.99 1004.55,-1004.58 0,-554.56 -449.99,-1004.49 -1004.55,-1004.49 -554.56,0 -1004.55,449.93 -1004.55,1004.49 z m 2040.81,1965.4 h -2072.5 c -510.87,0 -929.129,-418.26 -929.129,-929.1 v -2072.5 c 0,-511.73 418.259,-929.16 929.129,-929.16 h 2072.5 c 511.7,0 929.1,417.43 929.1,929.16 v 2072.5 c 0,510.84 -417.4,929.1 -929.1,929.1 z m -2072.5,-232.3 h 2072.5 c 384.01,0 696.83,-313.69 696.83,-696.8 v -2072.5 c 0,-384.01 -312.82,-696.891 -696.83,-696.891 h -2072.5 c -383.14,0 -696.86,312.881 -696.86,696.891 v 2072.5 c 0,383.11 313.72,696.8 696.86,696.8 z m 2279.93,-293.11 c -113.17,0 -204,-91.73 -204,-204 0,-113.16 90.83,-204.02 204,-204.02 112.29,0 203.98,90.86 203.98,204.02 0,112.27 -91.69,204 -203.98,204 z m 24,-1439.99 c 0,700.27 -567.43,1267.7 -1267.69,1267.7 -700.27,0 -1267.67,-567.43 -1267.67,-1267.7 0,-700.23 567.4,-1267.66 1267.67,-1267.66 700.26,0 1267.69,567.43 1267.69,1267.66 v 0" /></g></g></svg>